<?xml version="1.0" standalone="no"?><!DOCTYPE svg PUBLIC "-//W3C//DTD SVG 1.1//EN" "http://www.w3.org/Graphics/SVG/1.1/DTD/svg11.dtd" [<!ENTITY nbsp " ">]><svg data-noselect="" viewBox="158.1671243751 82.21860682133001 594.25005628896 445.68754221672" width="594.25005628896" ref="svg_canvas" height="445.68754221672" preserveAspectRatio="none" version="1.1" xmlns="http://www.w3.org/2000/svg" style="background: #ffffff;"><g id="shape_nN3MpeZXLY" ref="shape_nN3MpeZXLY" key="shape_nN3MpeZXLY" transform="translate(238.1671243751,245.06237792969) rotate(353,55.832875624902,60) scale(1,1)" style="cursor:move;display:inline;opacity:1;" filter="">
            <g style="display:inline"><rect fill="rgba(0,0,0,0)" width="131.66575124980483" height="140" x="-10" y="-10"></rect><svg version="1.1" id="图层_1" xmlns="http://www.w3.org/2000/svg" xmlns:xlink="http://www.w3.org/1999/xlink" x="0px" y="0px" width="111.66575124980483" height="120.00000000000001" viewBox="9.899999618530273 11.799982070922852 171.5 184.30001831054688" style="enable-background:new 0 0 200 200;" xml:space="preserve" preserveAspectRatio="none" data-parent="shape_nN3MpeZXLY">
<style type="text/css">
	.st0{fill:#004F9D;}
</style>
<path class="" d="M158,172.7c3.9-9.5,6.5-20,7.6-31.1c2.9-1.3,5.8-2.5,8.7-3.8c4.3-1.9,1.8-8.1-2.6-5.7c-1.8,1-3.7,2-5.7,2.9
	c0.2-4.1,0.1-8.2-0.1-12.3c0.1,4.2,0,8.4-0.3,12.5c-8,3.9-16.7,7.7-25.9,11.1c-0.6-8.3-0.9-11.1-2.8-19.3c0.5,7.5,0.8,14.1,0.8,20
	c-13.2,4.8-27.1,8.9-40.6,11.8c-5.3-10.3-10.3-22.7-14.6-36.4c3.5-0.7,6.8-1.3,9.8-2c13.9-3.1,20.4-5,38.3-10.7
	c5.6-1.8,3.3-7.7-1.4-6.1c-12.5,4.2-30.2,9.5-48.3,13.7c-1.2-4-2.2-8.1-3.2-12.3c-1.9-7.7-3.4-15.2-4.5-22.4
	c8.5-1.4,17.1-3.4,25.5-5.8c8.5-2.4,16-4.6,23.1-6.9c0.8,1.9,1.6,3.9,2.4,5.8c-0.6-2.3-1.2-4.2-1.8-6c9.5-3.2,18.2-6.5,27.2-10.6
	c4.1-1.8,2.1-7.4-2.1-5.9c-10.5-19.2-22.4-30.3-38.4-37.4c21.2,0.9,40.5,9,55.3,21.9c-16.4-16-38.8-25.9-63.4-25.9
	c-5,0-10,0.4-14.8,1.2c0,0-0.1,0-0.1-0.1c-6.5,1.1-12.7,2.9-18.7,5.3c0,0,0,0,0,0.1c0,0-0.1,0-0.1,0C33.7,31.7,9.9,65,9.9,103.9
	c0,50.9,40.9,92.2,91.3,92.2c34.6,0,64.7-19.5,80.2-48.3C175.3,157.5,167.4,165.9,158,172.7z M153,176c-5.4,3.3-11.1,6.2-17.2,8.4
	c3.6-9.6,4.7-20.5,4.2-32.7c8.8-3.1,16.9-6.4,24.8-9.8C162.9,154.4,158.9,166,153,176z M38.7,160.4c-1.1-1.3-2.2-2.5-3.3-3.9
	c-0.5-2.7,1.4-5.8,4.3-8.7c2.3-2.3,4.3-4.1,6.3-5.6c3.7,7.7,8.2,14.8,13.3,21.1c-0.4,0-0.9,0-1.3,0C48.1,163.4,42,162.2,38.7,160.4z
	 M36.8,115.4c0.6,2.9,1.4,5.8,2.2,8.6c-2.9,0.2-5.7,0.3-8.3,0.3c-13.4-0.1-16.1-3.2-5.7-10.8c3.5-2.5,7-4.6,10.4-6.3
	C35.7,109.9,36.2,112.7,36.8,115.4z M24.6,127c4.4,0.5,9.7,0.6,15.4,0.4c1.5,4.6,3.2,9,5.2,13.3c-2.6,1.7-5.3,3.8-8.4,6.8
	c-1.9,1.9-3.3,3.7-4.1,5.5c-5.9-8.2-10.5-17.3-13.3-27.3C20.8,126.4,22.5,126.8,24.6,127z M109.4,186.1c1.2,1.3,2.4,2.4,3.6,3.3
	c-0.1,0-0.2,0-0.3,0c-2.4,0.2-5,0.3-7.5,0.3c0,0,0,0-0.1,0c-12.7-4.1-24.6-12.1-34.7-23c7.6-0.3,15.2-1.1,22.8-2.3
	C98.5,173.4,103.9,180.8,109.4,186.1z M123.1,157.2c5.1-1.5,9.9-3.1,14.6-4.7c-0.6,21.5-4.9,31.4-12.4,34.2
	c-2.1,0.8-4.2,0.7-6.3-0.1c-6.1-3.3-12.9-11.6-19.5-23.5C107.5,161.6,115.4,159.5,123.1,157.2z M90.9,159.9
	c-8.2,1.6-16.1,2.6-23.5,3.1c-6-7.2-11.2-15.5-15.3-24.6c2.6-1.4,5.4-2.7,8.7-4.5c1.1-0.5,0.5-1.5-0.7-0.9c-3.2,1.6-6,2.8-8.6,4.1
	c-1.4-3.3-2.7-6.7-3.9-10.2c9.3-0.7,19.1-2,28.1-3.5C80,137.1,85.2,149.4,90.9,159.9z M72.7,113.3c0.5,1.8,1,3.6,1.5,5.4
	c-9.6,2-19.1,3.7-27.8,4.7c-0.9-2.9-1.6-5.8-2.3-8.9c-0.8-3.6-1.4-7.1-1.8-10.7c2.2-1,4.2-1.8,5.9-2.6c0.9-0.3,0.5-0.9-0.5-0.5
	c-1.6,0.7-3.5,1.4-5.5,2.3c-0.7-6.1-1-12-0.8-17.9c7.5,0.2,16-0.4,25-1.6C67.8,93,69.9,103,72.7,113.3z M46.1,56.2
	c5.2-2.4,10.2-4.4,13.9-5.6c1.3-0.4,1.1-1.2-0.4-0.7c-4.1,1.4-8.6,3-13.1,4.8C50,44,55.3,34.3,62.1,26.5c1.3-0.7,2.6-1.4,3.9-2
	c0.1,0,0.2-0.1,0.3-0.1c0,0,0,0,0,0c1.4-0.7,2.8-1.3,4.2-1.9c-1.8,3.4-3.2,7.5-4.1,12.4c-2.4,11.7-2.7,27.3-0.5,44.9
	c-8,1.3-15.7,2.1-22.8,2.1c-0.5,0-1,0-1.5,0C42.1,72.9,43.6,64.2,46.1,56.2z M34.5,81.6c-17.9-1.4-15.7-7.2-7.7-13.9
	c3-2.5,7.1-5.1,11.5-7.6C36.4,67,35.1,74.2,34.5,81.6z M72.7,78.6c-1.3-8.9-2-17.2-2.2-24.9c0-0.3,1.7-31.2,12.4-34.4
	c10.2-3.1,24.3,17.3,36.8,45.5C105.2,70.2,88.6,75.4,72.7,78.6z M147.1,53.3C147.1,53.3,147.1,53.3,147.1,53.3
	c-7.3,3.5-16.4,7.4-26.4,11.2c-0.9-2.4-1.8-4.6-2.6-6.9c-7.4-19.2-17.3-33.2-26.4-40.8c0.4-0.1,0.9-0.1,1.3-0.2
	C114.5,18.8,132.3,31.4,147.1,53.3z M49.2,35c0,0,0.1-0.1,0.1-0.1c-4.4,7.1-7.9,14.9-10.5,23.3c-5.1,2.5-9.9,5.4-14.1,8.6
	c-0.4,0.3-0.7,0.6-1,0.8C29.5,54.9,38.3,43.7,49.2,35z M19.4,79.6c1.3,1.4,3.4,2.6,6.7,3.5c2.4,0.7,5.2,1.2,8.2,1.5
	c-0.4,7-0.1,14.2,0.9,21.5c-4.1,1.9-8.4,4.1-12.4,6.5c-2.3,1.5-4.1,2.9-5.3,4.4c-0.8-4.7-1.2-9.5-1.2-14.4
	C16.3,94.6,17.4,86.9,19.4,79.6z M43,164.8c6.3,1.1,12.6,1.7,19,1.9c7.7,8.8,16.6,16.1,26.2,21.4c-0.2,0-0.4-0.1-0.6-0.1
	C70.5,184.6,55.1,176.4,43,164.8z" fill="#004F9D"></path>
</svg></g>
        </g><g id="shape_zGJIKxXJUt" ref="shape_zGJIKxXJUt" key="shape_zGJIKxXJUt" transform="translate(323.68518066406,260.85775756836) rotate(0,118.5,35.1335) scale(1,1)" style="cursor:move;display:inline;opacity:1;" filter="">
            <g style="display:inline"><svg xmlns="http://www.w3.org/2000/svg" version="1.1" xmlns:xlink="http://www.w3.org/1999/xlink" overflow="hidden" style="top:0; left: 0" width="348.732" height="70.267" viewBox="0 0 343.732 70.267" preserveAspectRatio="none" data-parent="shape_zGJIKxXJUt"><rect fill="rgba(0,0,0,0)" width="348.732" height="70.267"></rect> <rect opacity="0"></rect><g transform="translate(0 0)" data-width="338.732"><path fill="#004f9d" d="M18.15-16.07L18.15-22.97L37.12-22.97L37.12 0L19.84 0Q15.37 0 12.73-0.67Q10.09-1.33 7.95-3.02L7.95-3.02Q1.86-7.71 1.86-19.20L1.86-19.20Q1.86-26.68 4.76-31.67L4.76-31.67Q6.90-35.32 10.61-37.00Q14.33-38.69 20.24-38.69L20.24-38.69L37.12-38.69L37.12-31.78L21.17-31.78Q16.01-31.78 13.69-29.52L13.69-29.52Q10.90-26.85 10.90-19.95L10.90-19.95Q10.90-16.41 11.63-13.57Q12.35-10.73 13.63-9.34L13.63-9.34Q14.73-8.06 16.68-7.48Q18.62-6.90 21.46-6.90L21.46-6.90L28.94-6.90L28.94-16.07L18.15-16.07Z" transform="translate(5 49.822)" data-glyph-w="40.078"></path><path fill="#004f9d" d="M14.44 0L14.44-16.94L0.12-38.69L9.74-38.69L18.62-23.55L27.96-38.69L37.76-38.69L22.68-16.65L22.68 0L14.44 0Z" transform="translate(45.078 49.822)" data-glyph-w="37.874"></path><path fill="#004f9d" d="M9.80 0L0.17 0L16.18-38.69L25.64-38.69L41.64 0L32.02 0L28.25-8.93L13.57-8.93L9.80 0ZM26.45-15.83L20.94-29.35L15.43-15.83L26.45-15.83Z" transform="translate(82.952 49.822)" data-glyph-w="41.876000000000005"></path><path fill="#004f9d" d="M27.61 0L11.83-28.36L11.83 0L3.94 0L3.94-38.69L14.50-38.69L29.87-9.86L29.87-38.69L37.70-38.69L37.70 0L27.61 0Z" transform="translate(124.828 49.822)" data-glyph-w="41.644000000000005"></path><path fill="#004f9d" d="M18.15-16.07L18.15-22.97L37.12-22.97L37.12 0L19.84 0Q15.37 0 12.73-0.67Q10.09-1.33 7.95-3.02L7.95-3.02Q1.86-7.71 1.86-19.20L1.86-19.20Q1.86-26.68 4.76-31.67L4.76-31.67Q6.90-35.32 10.61-37.00Q14.33-38.69 20.24-38.69L20.24-38.69L37.12-38.69L37.12-31.78L21.17-31.78Q16.01-31.78 13.69-29.52L13.69-29.52Q10.90-26.85 10.90-19.95L10.90-19.95Q10.90-16.41 11.63-13.57Q12.35-10.73 13.63-9.34L13.63-9.34Q14.73-8.06 16.68-7.48Q18.62-6.90 21.46-6.90L21.46-6.90L28.94-6.90L28.94-16.07L18.15-16.07Z" transform="translate(166.472 49.822)" data-glyph-w="40.078"></path><path fill="#004f9d" d="M12.18-38.69L12.18 0L3.94 0L3.94-38.69L12.18-38.69Z" transform="translate(206.55 49.822)" data-glyph-w="16.124000000000002"></path><path fill="#004f9d" d="M28.94-15.89L28.94-15.89L15.95-15.89Q11.48-15.89 9.37-16.33Q7.25-16.76 5.80-17.98L5.80-17.98Q2.03-21.05 2.03-26.68L2.03-26.68Q2.03-33.23 7.77-36.71L7.77-36.71Q11.31-38.86 18.68-38.86L18.68-38.86Q23.90-38.86 27.09-37.96Q30.28-37.06 32.65-34.92L32.65-34.92Q35.50-32.19 36.89-27.67L36.89-27.67Q38.16-23.49 38.16-19.26L38.16-19.26Q38.16-12.82 35.50-7.60L35.50-7.60Q32.77-2.26 27.32-0.81L27.32-0.81Q24.30 0 18.39 0L18.39 0L4.12 0L4.12-6.84L15.95-6.84Q23.72-6.73 25.98-8.35L25.98-8.35Q27.38-9.34 28.16-11.31Q28.94-13.28 28.94-15.89ZM17.34-22.74L28.94-22.74Q28.94-26.97 27.26-29.46L27.26-29.46Q26.22-31.09 24.30-31.76Q22.39-32.42 18.73-32.42L18.73-32.42Q14.50-32.42 13.05-31.44L13.05-31.44Q11.08-30.16 11.08-27.43L11.08-27.43Q11.08-24.94 12.99-23.61L12.99-23.61Q14.15-22.74 17.34-22.74L17.34-22.74Z" transform="translate(222.674 49.822)" data-glyph-w="40.078"></path><path fill="#004f9d" d="M28.94-15.89L28.94-15.89L15.95-15.89Q11.48-15.89 9.37-16.33Q7.25-16.76 5.80-17.98L5.80-17.98Q2.03-21.05 2.03-26.68L2.03-26.68Q2.03-33.23 7.77-36.71L7.77-36.71Q11.31-38.86 18.68-38.86L18.68-38.86Q23.90-38.86 27.09-37.96Q30.28-37.06 32.65-34.92L32.65-34.92Q35.50-32.19 36.89-27.67L36.89-27.67Q38.16-23.49 38.16-19.26L38.16-19.26Q38.16-12.82 35.50-7.60L35.50-7.60Q32.77-2.26 27.32-0.81L27.32-0.81Q24.30 0 18.39 0L18.39 0L4.12 0L4.12-6.84L15.95-6.84Q23.72-6.73 25.98-8.35L25.98-8.35Q27.38-9.34 28.16-11.31Q28.94-13.28 28.94-15.89ZM17.34-22.74L28.94-22.74Q28.94-26.97 27.26-29.46L27.26-29.46Q26.22-31.09 24.30-31.76Q22.39-32.42 18.73-32.42L18.73-32.42Q14.50-32.42 13.05-31.44L13.05-31.44Q11.08-30.16 11.08-27.43L11.08-27.43Q11.08-24.94 12.99-23.61L12.99-23.61Q14.15-22.74 17.34-22.74L17.34-22.74Z" transform="translate(262.752 49.822)" data-glyph-w="40.078"></path><path fill="#004f9d" d="M18.97 0L1.91 0L1.91-6.84L18.50-6.84Q21.92-6.84 23.14-7.83L23.14-7.83Q24.65-9.05 24.65-11.43L24.65-11.43Q24.65-14.33 22.74-15.43L22.74-15.43Q21.52-16.12 18.50-16.12L18.50-16.12L5.57-16.12L5.57-22.97L18.50-22.97Q22.16-22.97 23.26-23.90L23.26-23.90Q24.59-25.00 24.59-27.32L24.59-27.32Q24.59-29.87 22.85-31.03L22.85-31.03Q22.21-31.49 21.37-31.64Q20.53-31.78 18.50-31.78L18.50-31.78L1.91-31.78L1.91-38.69L19.95-38.69Q23.78-38.63 24.85-38.51Q25.93-38.40 27.20-37.93L27.20-37.93Q30.22-36.83 31.96-33.87L31.96-33.87Q33.70-31.15 33.70-28.01L33.70-28.01Q33.70-22.62 28.54-19.60L28.54-19.60Q33.70-16.24 33.70-10.27L33.70-10.27Q33.70-4.76 29.52-2.09L29.52-2.09Q27.67-0.87 25.49-0.43Q23.32 0 18.97 0L18.97 0Z" transform="translate(302.83000000000004 49.822)" data-glyph-w="35.902"></path></g></svg></g>
        </g><g id="shape_wrrgefSoJY" ref="shape_wrrgefSoJY" key="shape_wrrgefSoJY" transform="translate(351.72888183594,317.18713378906) rotate(0,85.92578125,13.937622070312) scale(1,1)" style="cursor:move;display:inline;opacity:1;" filter="">
            <g style="display:inline"><svg xmlns="http://www.w3.org/2000/svg" version="1.1" xmlns:xlink="http://www.w3.org/1999/xlink" overflow="hidden" style="top:0; left: 0" width="72.18603515625" height="27.875244140625" viewBox="0 0 67.18603515625 27.875244140625" preserveAspectRatio="none" data-parent="shape_wrrgefSoJY"><rect fill="rgba(0,0,0,0)" width="72.18603515625" height="27.875244140625"></rect> <rect opacity="0"></rect><g transform="translate(0 0)" data-width="62.18603515625"><path fill="#004f9d" d="M12.66-10.71L10.79-10.71L10.79-10.71Q10.65-12.13 9.66-12.90Q8.67-13.68 7.00-13.68L7.00-13.68Q5.28-13.68 4.39-13.01Q3.50-12.35 3.50-11.06L3.50-11.06Q3.50-10.19 4.09-9.76L4.09-9.76Q4.69-9.33 6.48-8.91L6.48-8.91L9.11-8.29Q11.22-7.78 12.12-6.80L12.12-6.80Q13.02-5.82 13.02-4.04L13.02-4.04Q13.02-1.99 11.47-0.79Q9.92 0.41 7.26 0.41L7.26 0.41Q4.31 0.41 2.65-0.97L2.65-0.97Q1.03-2.34 1.03-4.71L1.03-4.71L1.03-4.82L1.03-4.82L2.90-4.82L2.90-4.82Q2.95-3.18 4.09-2.29Q5.23-1.39 7.26-1.39L7.26-1.39Q9.14-1.39 10.11-2.04Q11.08-2.69 11.08-3.94L11.08-3.94Q11.08-5.02 10.44-5.55L10.44-5.55Q9.80-6.06 7.88-6.52L7.88-6.52L5.25-7.15Q3.26-7.62 2.41-8.46L2.41-8.46Q1.56-9.30 1.56-10.79L1.56-10.79Q1.56-12.95 3.03-14.22Q4.50-15.48 7.00-15.48L7.00-15.48Q9.55-15.48 11.05-14.21Q12.56-12.94 12.66-10.71L12.66-10.71L12.66-10.71Z" transform="translate(5 19.482421875)" data-glyph-w="14.0068359375"></path><path fill="#004f9d" d="M1.80 0L1.80 0L1.80-15.07L1.80-15.07L2.82-15.07L2.82-15.07L8.40-15.07Q10.59-15.07 11.83-13.97Q13.06-12.87 13.06-10.92L13.06-10.92Q13.06-8.78 11.83-7.57Q10.59-6.36 8.40-6.36L8.40-6.36Q5.52-6.37 3.85-6.34L3.85-6.34L3.85-6.34L3.85 0L3.85 0L2.83 0L1.80 0ZM3.85-13.33L3.85-8.10L3.85-8.10L7.90-8.10Q9.48-8.10 10.22-8.77Q10.96-9.44 10.96-10.88L10.96-10.88Q10.96-12.15 10.22-12.74Q9.48-13.33 7.90-13.33L7.90-13.33L3.85-13.33L3.85-13.33Z" transform="translate(19.0068359375 19.482421875)" data-glyph-w="14.0068359375"></path><path fill="#004f9d" d="M1.70 0L1.70 0L1.70-15.07L1.70-15.07L2.72-15.07L2.72-15.07L7.90-15.07Q10.77-15.07 12.46-13.03Q14.16-10.98 14.16-7.53L14.16-7.53Q14.16-4.08 12.42-2.04Q10.68 0 7.73 0L7.73 0L2.72 0L2.72 0L1.70 0ZM3.74-13.33L3.74-1.74L3.74-1.74L7.48-1.74Q9.67-1.74 10.86-3.25Q12.06-4.76 12.06-7.53L12.06-7.53Q12.06-10.31 10.91-11.82Q9.76-13.33 7.65-13.33L7.65-13.33L3.74-13.33L3.74-13.33Z" transform="translate(33.013671875 19.482421875)" data-glyph-w="15.16552734375"></path><path fill="#004f9d" d="M1.56 0L1.56 0L1.56-15.07L1.56-15.07L2.57-15.07L2.57-15.07L8.18-15.07Q10.11-15.07 11.29-14.08Q12.47-13.09 12.47-11.47L12.47-11.47Q12.47-9.60 11.07-8.54L11.07-8.54Q10.76-8.30 10.39-8.12L10.39-8.12L10.39-8.12Q11.14-7.85 11.69-7.45L11.69-7.45Q13.17-6.38 13.17-4.47L13.17-4.47Q13.17-2.37 11.73-1.18Q10.28 0 7.72 0L7.72 0L2.57 0L2.57 0L1.56 0ZM3.60-13.33L3.60-13.33L3.60-8.65L3.60-8.65L7.24-8.65Q8.90-8.65 9.67-9.25Q10.44-9.85 10.44-11.15L10.44-11.15Q10.44-12.27 9.73-12.80Q9.02-13.33 7.51-13.33L7.51-13.33L3.60-13.33ZM3.60-7.00L3.60-7.00L3.60-1.74L3.60-1.74L7.75-1.74Q9.51-1.74 10.32-2.42Q11.14-3.10 11.14-4.55L11.14-4.55Q11.14-5.82 10.28-6.41Q9.43-7.00 7.61-7.00L7.61-7.00L3.60-7.00Z" transform="translate(48.17919921875 19.482421875)" data-glyph-w="14.0068359375"></path></g></svg></g>
        </g></svg>